<?xml version="1.0" encoding="iso-8859-1"?>
<!-- Uploaded to: SVG Repo, www.svgrepo.com, Generator: SVG Repo Mixer Tools -->
<svg height="800px" width="800px" version="1.1" id="Layer_1" xmlns="http://www.w3.org/2000/svg" xmlns:xlink="http://www.w3.org/1999/xlink" 
	 viewBox="0 0 512 512" xml:space="preserve">
<path style="fill:#F7D64C;" d="M320.905,239.522h-55.274V70.356c0-6.91-5.602-12.512-12.511-12.512H42.935
	c-6.91,0-12.512,5.601-12.512,12.512v329.837h451.154l0,0C481.576,311.457,409.641,239.522,320.905,239.522z"/>
<g>
	<path style="opacity:0.3;fill:#FFFFFF;enable-background:new    ;" d="M167.303,340.378c-26.884,0-48.677,21.793-48.677,48.677
		c0,3.834,0.457,7.56,1.296,11.139h94.763c0.839-3.579,1.296-7.304,1.296-11.139C215.979,362.171,194.186,340.378,167.303,340.378z"
		/>
	<path style="opacity:0.3;fill:#FFFFFF;enable-background:new    ;" d="M329.677,239.763c-3.431,8.828-5.333,18.419-5.333,28.459
		c0,43.419,35.198,78.617,78.617,78.617c22.941,0,43.582-9.831,57.953-25.505C434.699,274.892,386.053,242.796,329.677,239.763z"/>
</g>
<path style="fill:#EC8560;" d="M148.027,210.528L148.027,210.528c-33.157,0-60.037-26.88-60.037-60.037V57.844h120.074v92.647
	C208.064,183.649,181.185,210.528,148.027,210.528z"/>
<path style="opacity:0.1;enable-background:new    ;" d="M115.988,201.254c4.85,3.068,10.169,5.456,15.826,7.041V57.844h-15.826
	V201.254z M164.241,57.844v150.45c5.658-1.584,10.976-3.972,15.826-7.041V57.844H164.241z"/>
<path id="SVGCleanerId_0" style="fill:#394049;" d="M487.186,400.194H24.814c-9.333,0-16.9,7.566-16.9,16.9v20.163
	c0,9.333,7.566,16.9,16.9,16.9h462.373c9.333,0,16.9-7.566,16.9-16.9v-20.163C504.086,407.76,496.52,400.194,487.186,400.194z"/>
<g>
	<path id="SVGCleanerId_0_1_" style="fill:#394049;" d="M487.186,400.194H24.814c-9.333,0-16.9,7.566-16.9,16.9v20.163
		c0,9.333,7.566,16.9,16.9,16.9h462.373c9.333,0,16.9-7.566,16.9-16.9v-20.163C504.086,407.76,496.52,400.194,487.186,400.194z"/>
</g>
<path style="opacity:0.2;enable-background:new    ;" d="M498.562,445.153H36.191c-9.333,0-16.9-7.566-16.9-16.9V408.09
	c0-2.682,0.641-5.208,1.753-7.461c-7.515,1.716-13.13,8.428-13.13,16.464v20.163c0,9.333,7.566,16.9,16.9,16.9h462.373
	c6.652,0,12.39-3.853,15.147-9.44C501.119,444.994,499.86,445.153,498.562,445.153z"/>
<path style="opacity:0.05;fill:#FFFFFF;enable-background:new    ;" d="M487.186,400.194H378.819
	c16.525,21.19,42.275,34.834,71.229,34.834c20.264,0,38.97-6.676,54.036-17.947C504.078,407.752,496.516,400.194,487.186,400.194z"
	/>
<path style="opacity:0.15;enable-background:new    ;" d="M138.086,101.077v-4.25c0-3.774-3.06-6.834-6.834-6.834h-22.236
	c-3.774,0-6.834,3.06-6.834,6.834v4.25H74.109c-10.357,0-18.752,8.395-18.752,18.752l0,0c0,10.357,8.395,18.752,18.752,18.752
	h28.075v4.249c0,3.774,3.06,6.834,6.834,6.834h22.236c3.774,0,6.834-3.06,6.834-6.834v-4.249h69.977v-37.504H138.086z"/>
<path style="fill:#394049;" d="M78.505,134.186h129.559V96.682H78.505c-10.357,0-18.752,8.395-18.752,18.752l0,0
	C59.753,125.791,68.148,134.186,78.505,134.186z"/>
<path style="fill:#DBE7F2;" d="M135.019,85.598h-22.236c-3.774,0-6.834,3.06-6.834,6.834v46.003c0,3.774,3.06,6.834,6.834,6.834
	h22.236c3.774,0,6.834-3.06,6.834-6.834V92.432C141.853,88.658,138.793,85.598,135.019,85.598z"/>
<path style="opacity:0.15;enable-background:new    ;" d="M140.462,139.827h-22.236c-3.774,0-6.834-3.06-6.834-6.834V86.989
	c0-0.434,0.045-0.857,0.122-1.268c-3.167,0.595-5.566,3.371-5.566,6.711v46.003c0,3.774,3.06,6.834,6.834,6.834h22.236
	c3.34,0,6.116-2.398,6.711-5.566C141.319,139.781,140.896,139.827,140.462,139.827z"/>
<path d="M489.303,392.376c-4.099-89.343-78.06-160.767-168.397-160.767h-47.361V70.356c0-11.262-9.163-20.426-20.424-20.426H42.935
	c-11.263,0-20.426,9.163-20.426,20.426V392.39C9.904,393.557,0,404.188,0,417.093v20.163c0,13.682,11.131,24.814,24.814,24.814
	h462.373c13.682,0,24.814-11.131,24.814-24.814v-20.163C512,404.125,501.997,393.455,489.303,392.376z M95.904,65.757h104.247
	v23.012h-50.864c-1.635-6.361-7.403-11.083-14.267-11.083h-22.236c-6.865,0-12.632,4.722-14.267,11.083h-2.612V65.757H95.904z
	 M95.904,142.099h2.612c1.635,6.361,7.403,11.083,14.267,11.083h22.236c6.864,0,12.632-4.722,14.267-11.083h50.865v8.392
	c0,28.741-23.383,52.124-52.124,52.124s-52.123-23.383-52.123-52.124v-8.392H95.904z M78.505,126.273
	c-5.977,0-10.839-4.862-10.839-10.839c0-5.976,4.862-10.839,10.839-10.839h19.532v21.678
	C98.037,126.273,78.505,126.273,78.505,126.273z M113.863,137.355V93.511h20.076v43.844H113.863z M149.766,126.273v-21.678h50.385
	v21.678H149.766z M38.336,70.356c0-2.535,2.064-4.599,4.599-4.599h37.142v23.012h-1.572c-14.703,0-26.665,11.962-26.665,26.665
	s11.963,26.665,26.665,26.665h1.572v8.392c0,37.467,30.483,67.95,67.949,67.95c37.468,0,67.95-30.483,67.95-67.95V65.757h37.142
	c2.535,0,4.598,2.064,4.598,4.599v169.166c0,4.37,3.542,7.913,7.913,7.913h55.274c81.578,0,148.424,64.277,152.556,144.845H38.336
	V70.356z M81.128,446.243H24.814c-4.955,0-8.987-4.031-8.987-8.987v-20.163c0-4.956,4.032-8.987,8.987-8.987h56.314V446.243z
	 M142.298,446.243H96.954v-38.137h45.345v38.137H142.298z M496.174,437.256c0,4.956-4.032,8.987-8.987,8.987H158.124v-38.137
	h329.062c4.955,0,8.987,4.032,8.987,8.987V437.256z M343.72,331.172c-4.371,0-7.913,3.543-7.913,7.913
	c0,4.188-3.407,7.593-7.592,7.593c-4.188,0-7.593-3.406-7.593-7.593c0-4.37-3.543-7.913-7.913-7.913
	c-4.371,0-7.913,3.543-7.913,7.913c0,4.188-3.407,7.593-7.593,7.593c-4.188,0-7.593-3.406-7.593-7.593
	c0-4.37-3.542-7.913-7.913-7.913c-4.37,0-7.913,3.543-7.913,7.913c0,12.914,10.507,23.42,23.42,23.42
	c5.941,0,11.373-2.224,15.507-5.883c4.134,3.659,9.565,5.883,15.507,5.883c12.913,0,23.419-10.506,23.419-23.42
	C351.634,334.715,348.092,331.172,343.72,331.172z M384.332,301.416c-4.371,0-7.913,3.543-7.913,7.913v6.586
	c0,4.37,3.542,7.913,7.913,7.913c4.37,0,7.913-3.543,7.913-7.913v-6.586C392.245,304.959,388.702,301.416,384.332,301.416z
	 M241.084,301.416c-4.371,0-7.913,3.543-7.913,7.913v6.586c0,4.37,3.542,7.913,7.913,7.913c4.371,0,7.913-3.543,7.913-7.913v-6.586
	C248.997,304.959,245.455,301.416,241.084,301.416z"/>
</svg>